%TF.GenerationSoftware,KiCad,Pcbnew,9.0.0*%
%TF.CreationDate,2025-03-30T19:27:41+05:30*%
%TF.ProjectId,Water_level_controller,57617465-725f-46c6-9576-656c5f636f6e,rev?*%
%TF.SameCoordinates,Original*%
%TF.FileFunction,Paste,Top*%
%TF.FilePolarity,Positive*%
%FSLAX46Y46*%
G04 Gerber Fmt 4.6, Leading zero omitted, Abs format (unit mm)*
G04 Created by KiCad (PCBNEW 9.0.0) date 2025-03-30 19:27:41*
%MOMM*%
%LPD*%
G01*
G04 APERTURE LIST*
G04 Aperture macros list*
%AMRoundRect*
0 Rectangle with rounded corners*
0 $1 Rounding radius*
0 $2 $3 $4 $5 $6 $7 $8 $9 X,Y pos of 4 corners*
0 Add a 4 corners polygon primitive as box body*
4,1,4,$2,$3,$4,$5,$6,$7,$8,$9,$2,$3,0*
0 Add four circle primitives for the rounded corners*
1,1,$1+$1,$2,$3*
1,1,$1+$1,$4,$5*
1,1,$1+$1,$6,$7*
1,1,$1+$1,$8,$9*
0 Add four rect primitives between the rounded corners*
20,1,$1+$1,$2,$3,$4,$5,0*
20,1,$1+$1,$4,$5,$6,$7,0*
20,1,$1+$1,$6,$7,$8,$9,0*
20,1,$1+$1,$8,$9,$2,$3,0*%
G04 Aperture macros list end*
%ADD10R,1.500000X0.900000*%
%ADD11R,0.900000X1.500000*%
%ADD12R,1.050000X1.050000*%
%ADD13RoundRect,0.375000X-0.625000X-0.375000X0.625000X-0.375000X0.625000X0.375000X-0.625000X0.375000X0*%
%ADD14RoundRect,0.500000X-0.500000X-1.400000X0.500000X-1.400000X0.500000X1.400000X-0.500000X1.400000X0*%
G04 APERTURE END LIST*
D10*
%TO.C,U1*%
X106810000Y-110315000D03*
X106810000Y-111585000D03*
X106810000Y-112855000D03*
X106810000Y-114125000D03*
X106810000Y-115395000D03*
X106810000Y-116665000D03*
X106810000Y-117935000D03*
X106810000Y-119205000D03*
X106810000Y-120475000D03*
X106810000Y-121745000D03*
X106810000Y-123015000D03*
X106810000Y-124285000D03*
X106810000Y-125555000D03*
X106810000Y-126825000D03*
D11*
X109850000Y-128075000D03*
X111120000Y-128075000D03*
X112390000Y-128075000D03*
X113660000Y-128075000D03*
X114930000Y-128075000D03*
X116200000Y-128075000D03*
X117470000Y-128075000D03*
X118740000Y-128075000D03*
X120010000Y-128075000D03*
X121280000Y-128075000D03*
D10*
X124310000Y-126825000D03*
X124310000Y-125555000D03*
X124310000Y-124285000D03*
X124310000Y-123015000D03*
X124310000Y-121745000D03*
X124310000Y-120475000D03*
X124310000Y-119205000D03*
X124310000Y-117935000D03*
X124310000Y-116665000D03*
X124310000Y-115395000D03*
X124310000Y-114125000D03*
X124310000Y-112855000D03*
X124310000Y-111585000D03*
X124310000Y-110315000D03*
D12*
X113355000Y-116130000D03*
X113355000Y-117655000D03*
X113355000Y-119180000D03*
X114880000Y-116130000D03*
X114880000Y-117655000D03*
X114880000Y-119180000D03*
X116405000Y-116130000D03*
X116405000Y-117655000D03*
X116405000Y-119180000D03*
%TD*%
D13*
%TO.C,U2*%
X141860000Y-106150000D03*
X141860000Y-108450000D03*
D14*
X148160000Y-108450000D03*
D13*
X141860000Y-110750000D03*
%TD*%
M02*
